<svg width="1920" height="1594" viewBox="0 0 1920 1594" fill="none" xmlns="http://www.w3.org/2000/svg">
<g filter="url(#filter0_d)">
<path d="M925.169 1021.27C1655.38 1164.38 1881.37 731.923 1920.5 486L1920.5 1595C1243 1595 827 1594 -0.000397008 1594L-0.000150045 1326.11L4.80279e-07 900C219.194 884.581 525.705 942.991 925.169 1021.27Z" fill="url(#paint0_linear)"/>
<path d="M925.169 1021.27C1655.38 1164.38 1881.37 731.923 1920.5 486L1920.5 1595C1243 1595 827 1594 -0.000397008 1594L-0.000150045 1326.11L4.80279e-07 900C219.194 884.581 525.705 942.991 925.169 1021.27Z" stroke="black"/>
</g>
<defs>
<filter id="filter0_d" x="-294.894" y="0.866699" width="2684.24" height="2406.89" filterUnits="userSpaceOnUse" color-interpolation-filters="sRGB">
<feFlood flood-opacity="0" result="BackgroundImageFix"/>
<feColorMatrix in="SourceAlpha" type="matrix" values="0 0 0 0 0 0 0 0 0 0 0 0 0 0 0 0 0 0 127 0"/>
<feOffset dy="4"/>
<feGaussianBlur stdDeviation="2"/>
<feColorMatrix type="matrix" values="0 0 0 0 0 0 0 0 0 0 0 0 0 0 0 0 0 0 0.25 0"/>
<feBlend mode="normal" in2="BackgroundImageFix" result="effect1_dropShadow"/>
<feBlend mode="normal" in="SourceGraphic" in2="effect1_dropShadow" result="shape"/>
</filter>
<linearGradient id="paint0_linear" x1="683.203" y1="529.343" x2="1411.25" y2="1871.29" gradientUnits="userSpaceOnUse">
<stop stop-color="#FF8017"/>
<stop offset="1" stop-color="#FFBE17"/>
</linearGradient>
</defs>
</svg>
